<?xml version="1.0" encoding="UTF-8" standalone="no"?>
<svg version="1.1" xmlns="http://www.w3.org/2000/svg" xmlns:xlink="http://www.w3.org/1999/xlink">
    <!-- Generator: Sketch 45 (43475) - http://www.bohemiancoding.com/sketch -->
    <title>icon_number</title>
    <desc>Created with Sketch.</desc>
    <defs></defs>
    <g id="Page-1" stroke="none" stroke-width="1" fill="none" fill-rule="evenodd">
        <g id="Desktop" transform="translate(-635.000000, -5901.000000)" fill="#000000">
            <path d="M640.221,5905.99813 L642.182,5905.99813 L641.78,5907.99813 L639.821,5907.99813 L640.221,5905.99813 Z M639.987,5901.00013 C639.511,5901.00813 639.107,5901.34913 639.02,5901.81613 L638.582,5903.99813 L637,5903.99813 C636.448,5903.99813 636,5904.44613 636,5904.99813 C636,5905.55013 636.448,5905.99813 637,5905.99813 L638.182,5905.99813 L637.78,5907.99813 L636,5907.99813 C635.448,5907.99813 635,5908.44513 635,5908.99813 C635,5909.55113 635.448,5909.99813 636,5909.99813 L637.379,5909.99813 L637.02,5911.78713 C636.757,5913.09513 638.718,5913.48913 638.981,5912.18213 L639.418,5909.99813 L641.379,5909.99813 L641.02,5911.78713 C640.757,5913.09513 642.718,5913.48913 642.981,5912.18213 L643.418,5909.99813 L645,5909.99813 C645.553,5909.99813 646,5909.55113 646,5908.99813 C646,5908.44513 645.553,5907.99813 645,5907.99813 L643.821,5907.99813 L644.221,5905.99813 L646,5905.99813 C646.553,5905.99813 647,5905.55013 647,5904.99813 C647,5904.44613 646.553,5903.99813 646,5903.99813 L644.621,5903.99813 L644.981,5902.20913 C645.116,5901.58013 644.629,5900.99013 643.987,5901.00013 C643.511,5901.00813 643.107,5901.34913 643.02,5901.81613 L642.582,5903.99813 L640.621,5903.99813 L640.981,5902.20913 C641.115,5901.58013 640.63,5900.99013 639.987,5901.00013 L639.987,5901.00013 Z" id="icon_number"></path>
        </g>
    </g>
</svg>