<?xml version="1.0" encoding="UTF-8" standalone="no"?>
<svg  version="1.1" xmlns="http://www.w3.org/2000/svg" xmlns:xlink="http://www.w3.org/1999/xlink">
    <!-- Generator: Sketch 45 (43475) - http://www.bohemiancoding.com/sketch -->

    <g id="Page-1" stroke="none" stroke-width="1" fill="none" fill-rule="evenodd">
        <g id="Desktop" transform="translate(-370.000000, -5615.000000)">
            <g id="icon_zoomf" transform="translate(370.000000, 5616.000000)">
                <polyline id="Path-24" stroke="#000000" stroke-width="2" stroke-linecap="round" points="1.18701172 10.4109701 5.53200955 4.0542806 10.863878 7.3250529 15.9245877 0.661539714"></polyline>
                <path d="M1.54545455,11.25 C2.39898552,11.25 3.09090909,10.5784271 3.09090909,9.75 C3.09090909,8.92157288 2.39898552,8.25 1.54545455,8.25 C0.691923568,8.25 0,8.92157288 0,9.75 C0,10.5784271 0.691923568,11.25 1.54545455,11.25 Z" id="Oval-14" fill="#000000"></path>
                <path d="M5.32323232,5.75 C6.1767633,5.75 6.86868687,5.07842712 6.86868687,4.25 C6.86868687,3.42157288 6.1767633,2.75 5.32323232,2.75 C4.46970135,2.75 3.77777778,3.42157288 3.77777778,4.25 C3.77777778,5.07842712 4.46970135,5.75 5.32323232,5.75 Z" id="Oval-14-Copy" fill="#000000"></path>
                <path d="M10.989899,8.5 C11.84343,8.5 12.5353535,7.82842712 12.5353535,7 C12.5353535,6.17157288 11.84343,5.5 10.989899,5.5 C10.136368,5.5 9.44444444,6.17157288 9.44444444,7 C9.44444444,7.82842712 10.136368,8.5 10.989899,8.5 Z" id="Oval-14-Copy-2" fill="#000000"></path>
                <path d="M15.7121212,3 C16.5656522,3 17.2575758,2.32842712 17.2575758,1.5 C17.2575758,0.671572875 16.5656522,0 15.7121212,0 C14.8585902,0 14.1666667,0.671572875 14.1666667,1.5 C14.1666667,2.32842712 14.8585902,3 15.7121212,3 Z" id="Oval-14-Copy-3" fill="#000000"></path>
            </g>
        </g>
    </g>
</svg>