<?xml version="1.0" encoding="UTF-8" standalone="no"?>
<svg version="1.1" xmlns="http://www.w3.org/2000/svg" xmlns:xlink="http://www.w3.org/1999/xlink">
    <!-- Generator: Sketch 45 (43475) - http://www.bohemiancoding.com/sketch -->
    <title>icon_function</title>
    <desc>Created with Sketch.</desc>
    <defs></defs>
    <g id="Page-1" stroke="none" stroke-width="1" fill="none" fill-rule="evenodd">
        <g id="Desktop" transform="translate(-117.000000, -5606.000000)" fill-rule="nonzero" fill="#000000">
            <g id="icon_function" transform="translate(117.000000, 5606.000000)">
                <path d="M2.89673554,17.6670248 C4.34033058,17.6670248 5.10669421,16.3777686 5.33206612,15.6161157 C5.33566116,15.6040909 5.33900826,15.5918182 5.34210744,15.5792975 C5.8672314,13.4042975 6.70376033,9.95702479 7.32347107,7.44954545 L9.5407438,7.44954545 C9.95764463,7.44954545 10.2957025,7.11161157 10.2957025,6.69458678 C10.2957025,6.27756198 9.95764463,5.9396281 9.5407438,5.9396281 L7.69871901,5.9396281 C7.89706612,5.14958678 8.0422314,4.58690083 8.09938017,4.39487603 L8.16285124,4.17991736 C8.39690083,3.38119835 8.94495868,1.51028926 9.79252066,1.51028926 C10.5784711,1.51028926 10.6956198,2.72070248 10.7009504,2.77921488 C10.7344215,3.19363636 11.0959091,3.50665289 11.5113223,3.47082645 C11.9271074,3.43909091 12.2382645,3.0757438 12.206157,2.66020661 C12.1356198,1.74 11.5397107,0 9.79227273,0 C7.81363636,0 7.07082645,2.5361157 6.71392562,3.75520661 L6.65318182,3.96086777 C6.58066116,4.20210744 6.3903719,4.94541322 6.14219008,5.9396281 L3.50070248,5.9396281 C3.08367769,5.9396281 2.7457438,6.27756198 2.7457438,6.69458678 C2.7457438,7.11161157 3.08367769,7.44954545 3.50070248,7.44954545 L5.76818182,7.44954545 C4.99301653,10.593595 3.99123967,14.7406612 3.88103306,15.1972314 C3.83987603,15.3168595 3.53033058,16.1569835 2.89710744,16.1569835 C1.93016529,16.1569835 1.51152893,14.7997934 1.50818182,14.7896281 C1.39214876,14.3893388 0.974504132,14.1576446 0.572975207,14.2744215 C0.172561983,14.3905785 -0.0582644628,14.8092149 0.057768595,15.2097521 C0.321942149,16.1222727 1.2168595,17.6670248 2.89673554,17.6670248 Z" id="Shape"></path>
                <path d="M14.0931818,15.720124 C14.5380992,15.720124 14.9119835,15.4041322 14.9119835,14.9010744 C14.9119835,14.6673967 14.8185124,14.4565289 14.6195455,14.2224793 L13.0518595,12.4207438 L14.5730579,10.642314 C14.7133884,10.4667769 14.8185124,10.2795868 14.8185124,10.0338843 C14.8185124,9.58884298 14.4556612,9.26144628 13.987562,9.26144628 C13.6718182,9.26144628 13.4263636,9.46028926 13.2153719,9.7181405 L12.033843,11.2620248 L10.8756198,9.71789256 C10.6413223,9.42570248 10.3959917,9.26144628 10.0450413,9.26144628 C9.6,9.26144628 9.22599174,9.57768595 9.22599174,10.0807438 C9.22599174,10.3144215 9.31971074,10.5252893 9.51818182,10.7589669 L10.9808678,12.4439256 L9.37772727,14.3392562 C9.22561983,14.5147934 9.13227273,14.7019835 9.13227273,14.947686 C9.13227273,15.3926033 9.495,15.719876 9.96272727,15.719876 C10.278719,15.719876 10.5242975,15.5210331 10.7349174,15.2634298 L11.9981405,13.6022727 L13.2617355,15.2634298 C13.4965289,15.5563636 13.7422314,15.720124 14.0931818,15.720124 Z" id="Shape"></path>
            </g>
        </g>
    </g>
</svg>