<svg id="Layer_1" data-name="Layer 1" xmlns="http://www.w3.org/2000/svg" width="61.1593" height="11.1692" viewBox="0 0 61.1593 11.1692"><title>uber</title><path d="M10.0881-48.6872v6.1846c0,2.0308-1.0508,2.9538-3.4678,2.9538s-3.4678-.8308-3.4678-2.9538v-6.4615H.7356q-.3153,0-.3153.2769V-42.41c0,3.4154,2.522,4.6154,6.0949,4.6154,3.678,0,6.0949-1.2,6.0949-4.6154v-6.5538H10.2983C10.1932-48.9641,10.0881-48.8718,10.0881-48.6872Zm34.0475,1.5692c.21,0,.3153-.0923.3153-.1846l.7356-1.4769c0-.0923,0-.0923-.1051-.0923H35.6237c-.8407,0-1.261.2769-1.261.7385v9.6c0,.4615.21.6462.9458.6462h8.8271c.21,0,.3153-.0923.3153-.1846l.6305-1.4769c0-.0923,0-.0923-.1051-.0923H36.8847v-2.0308c0-.6462.42-1.0154,1.5763-1.0154h3.5729c.21,0,.3153-.0923.3153-.1846l.7356-1.3846c0-.0923,0-.0923-.1051-.0923H36.99v-2.7692ZM27.4271-43.7026a2.45,2.45,0,0,0,1.4712-2.4c0-2.4-2.3119-2.7692-4.6237-2.7692H18.9153c-.8407,0-1.261.2769-1.261.7385v9.6c0,.4615.21.6462.9458.6462h6.62c2.522,0,4.2034-.8308,4.2034-3.0462A2.3779,2.3779,0,0,0,27.4271-43.7026ZM20.3864-47.21h4.0983c1.3661,0,1.7864.4615,1.7864,1.3846s-.42,1.3846-1.7864,1.3846H20.3864ZM25.01-39.7333H20.3864v-1.9385c0-.6462.42-1.0154,1.5763-1.0154H25.01c1.4712,0,1.8915.4615,1.8915,1.4769S26.4814-39.7333,25.01-39.7333ZM61.58-38.0718l-2.8373-4.2462a2.9224,2.9224,0,0,0,2.522-3.2308c0-2.6769-1.8915-3.4154-5.0441-3.4154H50.861c-.8407,0-1.261.2769-1.261.7385v9.9692q0,.2769.3153.2769h2.3119v-3.1385c0-.6462.42-1.0154,1.5763-1.0154h2.3119l2.522,4.0615c.1051.0923.1051.1846.3153.1846h2.417A.19.19,0,0,0,61.58-38.0718Zm-4.939-5.7231H52.2271V-47.21h4.4136c1.6814,0,1.9966.5538,1.9966,1.6615C58.6373-44.3487,58.322-43.7949,56.6407-43.7949Z" transform="translate(-0.4203 48.9641)"/></svg>