<?xml version="1.0" encoding="UTF-8" standalone="no"?>
<svg  version="1.1" xmlns="http://www.w3.org/2000/svg" xmlns:xlink="http://www.w3.org/1999/xlink">
    <!-- Generator: Sketch 45 (43475) - http://www.bohemiancoding.com/sketch -->
    <title>Group 18 Copy 2</title>
    <desc>Created with Sketch.</desc>
    <defs></defs>
    <g id="Page-1" stroke="none" stroke-width="1" fill="none" fill-rule="evenodd">
        <g id="Desktop" transform="translate(-881.000000, -5906.000000)" fill="#000000">
            <g id="Group-18-Copy-2" transform="translate(881.000000, 5906.000000)">
                <path d="M4,5 L1,5 C0.4,5 0,4.6 0,4 L0,1 C0,0.4 0.4,0 1,0 L4,0 C4.6,0 5,0.4 5,1 L5,4 C5,4.6 4.6,5 4,5" id="Fill-1"></path>
                <path d="M11,5 L8,5 C7.4,5 7,4.6 7,4 L7,1 C7,0.4 7.4,0 8,0 L11,0 C11.6,0 12,0.4 12,1 L12,4 C12,4.6 11.5,5 11,5" id="Fill-3"></path>
                <path d="M4,12 L1,12 C0.4,12 0,11.6 0,11 L0,8 C0,7.4 0.4,7 1,7 L4,7 C4.6,7 5,7.4 5,8 L5,11 C5,11.6 4.6,12 4,12" id="Fill-5"></path>
                <path d="M11,12 L8,12 C7.4,12 7,11.6 7,11 L7,8 C7,7.4 7.4,7 8,7 L11,7 C11.6,7 12,7.4 12,8 L12,11 C12,11.6 11.5,12 11,12" id="Fill-7"></path>
            </g>
        </g>
    </g>
</svg>