<?xml version="1.0" encoding="UTF-8" standalone="no"?>
<svg version="1.1" xmlns="http://www.w3.org/2000/svg" xmlns:xlink="http://www.w3.org/1999/xlink">
    <!-- Generator: Sketch 45 (43475) - http://www.bohemiancoding.com/sketch -->
    <defs></defs>
    <g id="Page-1" stroke="none" stroke-width="1" fill="none" fill-rule="evenodd">
        <g id="Desktop" transform="translate(-638.000000, -5756.000000)" fill="#000000">
            <path d="M646.9652,5759.4428 C646.3796,5759.4932 646.004,5760.1136 646.4,5760.8 C646.4,5760.8 647.6,5762 647.6,5763.2 L645.2,5763.2 C645.2,5763.2 644,5763.2 644,5764.4 L644,5766.8 C644,5766.8 644,5768 645.2,5768 L648.8,5768 C648.8,5768 650,5768 650,5766.8 L650,5763.2 C650,5760.8 647.6,5759.6 647.6,5759.6 C647.3792,5759.4716 647.1608,5759.426 646.9652,5759.4428 L646.9652,5759.4428 Z M639.2,5756 C639.2,5756 638,5756 638,5757.2 L638,5760.8 C638,5763.2 640.4,5764.4 640.4,5764.4 C641.2868,5764.9124 642.1292,5764.1156 641.6,5763.2 C641.6,5763.2 640.4,5762 640.4,5760.8 L642.8,5760.8 C642.8,5760.8 644,5760.8 644,5759.6 L644,5757.2 C644,5757.2 644,5756 642.8,5756 L639.2,5756 Z" id="icon_string"></path>
        </g>
    </g>
</svg>