<?xml version="1.0" encoding="UTF-8" standalone="no"?>
<svg width="121px" height="27px" viewBox="0 0 121 27" version="1.1" xmlns="http://www.w3.org/2000/svg" xmlns:xlink="http://www.w3.org/1999/xlink">
    <!-- Generator: Sketch 44.1 (41455) - http://www.bohemiancoding.com/sketch -->
    <title>Page 1</title>
    <desc>Created with Sketch.</desc>
    <defs></defs>
    <g id="Page-1" stroke="none" stroke-width="1" fill="none" fill-rule="evenodd">
        <g id="Desktop" transform="translate(-123.000000, -850.000000)" fill="#000">
            <path d="M185.337975,857.225797 L184.955063,857.225797 L180.283544,857.225797 L180.283544,862.097121 C180.283544,862.097121 182.810759,862.015932 184.878481,862.015932 C186.946203,862.015932 187.482278,861.5288 187.482278,859.336704 C187.482278,857.469363 186.103797,857.225797 185.337975,857.225797 L185.337975,857.225797 Z M228.606962,857.144608 L228.606962,868.916974 L233.891139,868.916974 C236.418354,868.916974 236.494937,865.507048 236.494937,865.507048 L236.494937,860.960479 C236.494937,856.982231 233.661392,857.225797 233.661392,857.225797 L228.606962,857.225797 L228.606962,857.144608 Z M125.067722,854.221814 L128.437342,854.221814 L130.73481,867.699143 L133.721519,854.221814 L137.320886,854.303003 L140.307595,867.94271 L142.528481,854.303003 L145.744937,854.303003 L142.375316,871.920957 L138.239873,871.920957 L135.559494,859.093138 L132.572785,871.920957 L128.513924,871.920957 L125.067722,854.221814 Z M232.665823,854.221814 C234.120886,854.140625 239.787975,854.221814 239.787975,860.473346 L239.787975,865.425859 C239.787975,865.425859 240.094304,872.002146 233.967722,872.002146 C227.841139,872.002146 225.160759,872.083335 225.160759,872.083335 L225.160759,854.221814 L232.359494,854.221814 L232.665823,854.221814 Z M200.194937,854.140625 L200.194937,857.06342 L202.492405,857.06342 L202.492405,868.916974 L200.194937,868.916974 L200.194937,871.839769 L214.362658,871.839769 L214.362658,866.075369 L211.529114,866.075369 L211.529114,868.916974 L205.555696,868.916974 L205.555696,864.126839 L209.997468,864.126839 L209.997468,861.204045 L205.555696,861.204045 L205.555696,857.06342 L211.375949,857.06342 L211.375949,859.905025 L214.439241,859.905025 L214.439241,854.140625 L200.194937,854.140625 Z M177.067089,854.140625 L186.716456,854.140625 C186.716456,854.140625 190.851899,853.897059 190.851899,858.687194 C190.851899,863.477329 188.324684,863.720896 188.324684,863.720896 C188.324684,863.720896 190.851899,863.883273 190.851899,867.617955 L190.851899,871.677391 L187.482278,871.677391 L187.482278,867.861521 C187.482278,867.861521 187.482278,864.857538 185.567722,864.857538 C183.653165,864.857538 180.283544,864.938727 180.283544,864.938727 L180.283544,871.75858 L176.990506,871.75858 L176.990506,854.140625 L177.067089,854.140625 Z M153.786076,854.140625 L153.786076,857.144608 L157.844937,857.144608 L157.844937,868.916974 L153.786076,868.916974 L153.786076,871.920957 L165.503165,871.920957 L165.503165,868.916974 L161.061392,868.916974 L161.061392,857.144608 L165.503165,857.144608 L165.503165,854.140625 L153.786076,854.140625 Z M219.723418,876.142771 L244,876.142771 L244,850 L219.723418,850 L219.723418,876.142771 Z M171.476582,876.142771 L195.753165,876.142771 L195.753165,850 L171.476582,850 L171.476582,876.142771 Z M123,876.142771 L147.276582,876.142771 L147.276582,850 L123,850 L123,876.142771 Z" id="Page-1"></path>
        </g>
    </g>
</svg>